<svg width="173" height="46" viewBox="0 0 173 46" fill="none" xmlns="http://www.w3.org/2000/svg">
<path fill-rule="evenodd" clip-rule="evenodd" d="M88 21V9H98.2978C99.1979 9 99.9064 9.19308 100.355 9.58021C100.742 9.9025 101 10.5476 101 11.3228V14.0322C101 14.8069 100.742 15.4515 100.355 15.7738C99.9064 16.1614 99.1979 16.354 98.2978 16.354H90.7669V21H88ZM97.0101 11.0644H90.7669V14.2891H97.0101C97.5241 14.2891 97.8465 14.2262 98.0405 14.0322C98.1694 13.903 98.2978 13.6446 98.2978 13.3223V12.0317C98.2978 11.7089 98.1694 11.4505 98.0405 11.3228C97.8465 11.1292 97.5241 11.0644 97.0101 11.0644Z" fill="#767676"/>
<path fill-rule="evenodd" clip-rule="evenodd" d="M105 21V9H115.792C116.811 9 117.555 9.19308 118.029 9.58021C118.438 9.9025 118.71 10.5476 118.71 11.3228V14.1609C118.71 14.999 118.438 15.5812 118.029 15.9035C117.555 16.2901 116.811 16.4837 115.792 16.4837H114.162L120 21H115.792L110.702 16.4837H107.917V21H105ZM114.503 11.0644H107.917V14.4193H114.503C115.044 14.4193 115.385 14.354 115.587 14.2262C115.723 14.0965 115.861 13.8381 115.861 13.452V12.0317C115.861 11.7089 115.723 11.4505 115.587 11.3228C115.385 11.1292 115.044 11.0644 114.503 11.0644Z" fill="#767676"/>
<path fill-rule="evenodd" clip-rule="evenodd" d="M124 21V9H136.866V11.0644H126.964V13.7094H132.756V15.7738H126.964V18.7416H137V21H124Z" fill="#767676"/>
<path fill-rule="evenodd" clip-rule="evenodd" d="M152.24 11.1292H144.028V13.7094H151.837C153.047 13.7094 153.923 13.903 154.328 14.2896C154.796 14.6777 155 15.4515 155 16.5485V18.1619C155 19.257 154.796 20.0312 154.328 20.4193C153.923 20.8064 153.047 21 151.837 21H144.097C142.884 21 142.079 20.8064 141.606 20.4193C141.203 20.0312 141 19.257 141 18.1619V17.8381L143.56 17.3228V18.7416H152.377V16.0322H144.567C143.357 16.0322 142.55 15.8386 142.145 15.3871C141.673 14.999 141.47 14.2896 141.47 13.1931V11.8386C141.47 10.7421 141.673 10.0322 142.145 9.64505C142.55 9.19308 143.357 9 144.567 9H151.701C152.913 9 153.721 9.19308 154.126 9.58021C154.594 9.96734 154.796 10.6772 154.796 11.6441V11.9035L152.24 12.4832V11.1292Z" fill="#767676"/>
<path fill-rule="evenodd" clip-rule="evenodd" d="M170.24 11.1292H162.028V13.7094H169.837C171.047 13.7094 171.923 13.903 172.328 14.2896C172.796 14.6777 173 15.4515 173 16.5485V18.1619C173 19.257 172.796 20.0312 172.328 20.4193C171.923 20.8064 171.047 21 169.837 21H162.097C160.884 21 160.079 20.8064 159.606 20.4193C159.203 20.0312 159 19.257 159 18.1619V17.8381L161.56 17.3228V18.7416H170.377V16.0322H162.567C161.357 16.0322 160.55 15.8386 160.145 15.3871C159.673 14.999 159.47 14.2896 159.47 13.1931V11.8386C159.47 10.7421 159.673 10.0322 160.145 9.64505C160.55 9.19308 161.357 9 162.567 9H169.701C170.913 9 171.721 9.19308 172.126 9.58021C172.594 9.96734 172.796 10.6772 172.796 11.6441V11.9035L170.24 12.4832V11.1292Z" fill="#767676"/>
<path fill-rule="evenodd" clip-rule="evenodd" d="M68.1318 21L73.9257 14.8708L68 9H71.8191L75.7054 13.0639L79.4564 9H82.682L77.3503 14.548L84 21H80.1152L75.6397 16.354L71.4898 21H68.1318Z" fill="#767676"/>
<path fill-rule="evenodd" clip-rule="evenodd" d="M7.20072 21L0 9H3.3336L8.33376 17.7094L13.1334 9H16L9.20028 21H7.20072Z" fill="#767676"/>
<path fill-rule="evenodd" clip-rule="evenodd" d="M20 21V9H21.8536L30.2272 16.0965C30.5475 16.354 30.8044 16.548 30.9953 16.7421C31.2513 16.9352 31.4426 17.1931 31.6349 17.3876C31.5706 16.7421 31.5059 16.2253 31.5059 15.9683V15.3218V9H34V21H32.0831L23.3236 13.5807C23.1332 13.3871 22.9405 13.2579 22.8125 13.0639C22.6202 12.9352 22.4951 12.8064 22.3666 12.6129C22.4303 12.9995 22.4303 13.3223 22.4303 13.7094C22.4951 14.0322 22.4951 14.2891 22.4951 14.548V21H20Z" fill="#767676"/>
<path fill-rule="evenodd" clip-rule="evenodd" d="M64 27.619C64 28.3818 63.3765 29 62.6071 29H39.3929C38.6235 29 38 28.3818 38 27.619V1.38095C38 0.618206 38.6235 0 39.3929 0H62.6071C63.3765 0 64 0.618206 64 1.38095V27.619Z" fill="#9F224E"/>
<path fill-rule="evenodd" clip-rule="evenodd" d="M46.2174 10.6513V11.1042V11.9623H47.8889H52.913V16.0377H47.8889H46.2174V16.9909V17.4438V18.3494V19.7079V21.0189H47.8889H60.5652V24.6415H47.3126H41.4348V3.35849H47.3126H60.5652V6.98113H47.8889H46.2174V8.38717V9.74566V10.6513ZM47.6522 8.33962H60.7039C61.4959 8.33962 62 7.77857 62 7.02868V3.40604C62 2.65615 61.4959 2 60.7039 2H47.3126H41.5735C40.781 2 40 2.65615 40 3.40604V24.6891C40 25.4389 40.781 26 41.5735 26H47.3126H60.7039C61.4959 26 62 25.4389 62 24.6891V21.0664C62 20.3165 61.4959 19.6604 60.7039 19.6604H47.6522V18.3494V17.3962H53.0517C53.8437 17.3962 54.3478 16.8352 54.3478 16.0853V12.0098C54.3478 11.2599 53.8437 10.6038 53.0517 10.6038H47.6522V9.74566V8.33962Z" fill="white"/>
<path d="M170 42H171V43H170V42ZM171 43H172V44H171V43ZM170 41H171V42H170V41ZM170 40H171V41H170V40ZM170 39H171V40H170V39ZM170 38H171V39H170V38ZM170 37H171V38H170V37ZM170 36H171V37H170V36ZM169 38H170V39H169V38ZM171 38H172V39H171V38ZM172 38H173V39H172V38ZM172 43H173V44H172V43Z" fill="#222222"/>
<path d="M163.976 37.9761H167.024V38.9761H168.024V44.0241H163.976V43.0241H162.976V40.9761H163.976V39.9761H166.976V39.0241H163.976V37.9761ZM164.024 42.9761H166.976V41.0241H164.024V42.9761Z" fill="#222222"/>
<path d="M157 43H158V44H157V43ZM157 42H158V43H157V42ZM157 41H158V42H157V41ZM157 40H158V41H157V40ZM157 39H158V40H157V39ZM157 38H158V39H157V38ZM157 37H158V38H157V37ZM157 36H158V37H157V36ZM158 38H159V39H158V38ZM159 38H160V39H159V38ZM160 38H161V39H160V38ZM161 39H162V40H161V39ZM161 40H162V41H161V40ZM161 41H162V42H161V41ZM161 42H162V43H161V42ZM161 43H162V44H161V43Z" fill="#222222"/>
<path d="M151 43H152V44H151V43ZM151 42H152V43H151V42ZM151 41H152V42H151V41ZM151 40H152V41H151V40ZM151 39H152V40H151V39ZM151 38H152V39H151V38ZM152 38H153V39H152V38ZM153 38H154V39H153V38ZM154 38H155V39H154V38ZM155 39H156V40H155V39ZM155 40H156V41H155V40ZM155 41H156V42H155V41ZM155 42H156V43H155V42ZM155 43H156V44H155V43Z" fill="#222222"/>
<path d="M141 43H142V44H141V43ZM141 42H142V43H141V42ZM141 41H142V42H141V41ZM141 40H142V41H141V40ZM141 39H142V40H141V39ZM141 38H142V39H141V38ZM142 38H143V39H142V38ZM143 38H144V39H143V38ZM144 39H145V40H144V39ZM144 40H145V41H144V40ZM144 41H145V42H144V41ZM144 42H145V43H144V42ZM144 43H145V44H144V43ZM145 38H146V39H145V38ZM146 38H147V39H146V38ZM147 39H148V40H147V39ZM147 40H148V41H147V40ZM147 41H148V42H147V41ZM147 42H148V43H147V42ZM147 43H148V44H147V43Z" fill="#222222"/>
<path d="M136 43H137V44H136V43ZM137 43H138V44H137V43ZM138 43H139V44H138V43ZM135 42H136V43H135V42ZM135 41H136V42H135V41ZM135 40H136V41H135V40ZM135 39H136V40H135V39ZM136 38H137V39H136V38ZM137 38H138V39H137V38ZM138 38H139V39H138V38ZM139 39H140V40H139V39ZM139 40H140V41H139V40ZM138 40H139V41H138V40ZM137 40H138V41H137V40ZM136 40H137V41H136V40ZM139 42H140V43H139V42Z" fill="#222222"/>
<path d="M129 43H130V44H129V43ZM130 42H131V43H130V42ZM129 38H130V39H129V38ZM130 39H131V40H130V39ZM131 40H132V41H131V40ZM131 41H132V42H131V41ZM132 39H133V40H132V39ZM133 38H134V39H133V38ZM132 42H133V43H132V42ZM133 43H134V44H133V43Z" fill="#222222"/>
<path d="M125 43H126V44H125V43ZM125 42H126V43H125V42ZM125 41H126V42H125V41ZM125 40H126V41H125V40ZM125 39H126V40H125V39ZM125 38H126V39H125V38ZM125 36H126V37H125V36Z" fill="#222222"/>
<path d="M118 42H119V43H118V42ZM118 41H119V42H118V41ZM118 40H119V41H118V40ZM118 39H119V40H118V39ZM119 38H120V39H119V38ZM120 38H121V39H120V38ZM121 38H122V39H121V38ZM122 39H123V40H122V39ZM122 40H123V41H122V40ZM122 42H123V43H122V42ZM122 41H123V42H122V41ZM119 43H120V44H119V43ZM120 43H121V44H120V43ZM121 43H122V44H121V43Z" fill="#222222"/>
<path d="M112 43H113V44H112V43ZM111 42H112V43H111V42ZM111 41H112V42H111V41ZM111 40H112V41H111V40ZM111 39H112V40H111V39ZM111 38H112V39H111V38ZM113 43H114V44H113V43ZM115 43H116V44H115V43ZM115 42H116V43H115V42ZM115 41H116V42H115V41ZM115 40H116V41H115V40ZM115 39H116V40H115V39ZM115 38H116V39H115V38ZM114 43H115V44H114V43Z" fill="#222222"/>
<path d="M105 42H106V43H105V42ZM105 41H106V42H105V41ZM105 40H106V41H105V40ZM105 39H106V40H105V39ZM106 43H107V44H106V43ZM107 43H108V44H107V43ZM108 43H109V44H108V43ZM106 38H107V39H106V38ZM107 38H108V39H107V38ZM108 38H109V39H108V38ZM109 38H110V39H109V38ZM109 39H110V40H109V39ZM109 40H110V41H109V40ZM109 41H110V42H109V41ZM109 42H110V43H109V42ZM109 43H110V44H109V43ZM109 44H110V45H109V44ZM108 45H109V46H108V45ZM107 45H108V46H107V45ZM106 45H107V46H106V45Z" fill="#222222"/>
<path d="M99 43H100V44H99V43ZM99 42H100V43H99V42ZM99 41H100V42H99V41ZM99 40H100V41H99V40ZM99 39H100V40H99V39ZM99 38H100V39H99V38ZM100 38H101V39H100V38ZM101 38H102V39H101V38ZM102 38H103V39H102V38ZM103 39H104V40H103V39ZM103 40H104V41H103V40ZM103 41H104V42H103V41ZM103 42H104V43H103V42ZM103 43H104V44H103V43Z" fill="#222222"/>
<path d="M92 43H93V44H92V43ZM91 42H92V43H91V42ZM91 41H92V42H91V41ZM91 40H92V41H91V40ZM91 39H92V40H91V39ZM91 38H92V39H91V38ZM93 43H94V44H93V43ZM95 43H96V44H95V43ZM95 42H96V43H95V42ZM95 41H96V42H95V41ZM95 40H96V41H95V40ZM95 39H96V40H95V39ZM95 38H96V39H95V38ZM94 43H95V44H94V43Z" fill="#222222"/>
<path d="M86 43H87V44H86V43ZM87 43H88V44H87V43ZM88 43H89V44H88V43ZM85 42H86V43H85V42ZM85 41H86V42H85V41ZM85 40H86V41H85V40ZM85 39H86V40H85V39ZM86 38H87V39H86V38ZM87 38H88V39H87V38ZM88 38H89V39H88V38ZM89 39H90V40H89V39ZM89 40H90V41H89V40ZM88 40H89V41H88V40ZM87 40H88V41H87V40ZM86 40H87V41H86V40ZM89 42H90V43H89V42Z" fill="#222222"/>
<path d="M83 43H84V44H83V43ZM83 42H84V43H83V42ZM83 41H84V42H83V41ZM83 40H84V41H83V40ZM83 39H84V40H83V39ZM83 38H84V39H83V38ZM83 36H84V37H83V36Z" fill="#222222"/>
<path d="M77 43H78V44H77V43ZM77 42H78V43H77V42ZM77 41H78V42H77V41ZM77 40H78V41H77V40ZM77 39H78V40H77V39ZM77 38H78V39H77V38ZM77 37H78V38H77V37ZM77 36H78V37H77V36ZM78 38H79V39H78V38ZM79 38H80V39H79V38ZM80 38H81V39H80V38ZM81 39H82V40H81V39ZM81 40H82V41H81V40ZM81 41H82V42H81V41ZM81 42H82V43H81V42ZM81 43H82V44H81V43Z" fill="#222222"/>
<path d="M71 43H72V44H71V43ZM71 42H72V43H71V42ZM71 41H72V42H71V41ZM71 40H72V41H71V40ZM71 39H72V40H71V39ZM71 38H72V39H71V38ZM72 38H73V39H72V38ZM73 38H74V39H73V38ZM74 38H75V39H74V38ZM75 39H76V40H75V39ZM75 40H76V41H75V40ZM75 41H76V42H75V41ZM75 42H76V43H75V42ZM75 43H76V44H75V43Z" fill="#222222"/>
<path d="M65 42H66V43H65V42ZM66 43H67V44H66V43ZM65 41H66V42H65V41ZM65 40H66V41H65V40ZM65 39H66V40H65V39ZM65 38H66V39H65V38ZM65 37H66V38H65V37ZM65 36H66V37H65V36ZM64 38H65V39H64V38ZM66 38H67V39H66V38ZM67 38H68V39H67V38ZM67 43H68V44H67V43Z" fill="#222222"/>
<path d="M59 43H60V44H59V43ZM60 43H61V44H60V43ZM61 43H62V44H61V43ZM58 42H59V43H58V42ZM58 41H59V42H58V41ZM58 40H59V41H58V40ZM58 39H59V40H58V39ZM59 38H60V39H59V38ZM60 38H61V39H60V38ZM61 38H62V39H61V38ZM62 39H63V40H62V39ZM62 40H63V41H62V40ZM61 40H62V41H61V40ZM60 40H61V41H60V40ZM59 40H60V41H59V40ZM62 42H63V43H62V42Z" fill="#222222"/>
<path d="M56 43H57V44H56V43ZM56 42H57V43H56V42ZM56 41H57V42H56V41ZM56 40H57V41H56V40ZM56 39H57V40H56V39ZM56 38H57V39H56V38ZM56 36H57V37H56V36Z" fill="#222222"/>
<path d="M48 36H49V37H48V36ZM48 37H49V38H48V37ZM49 38H50V39H49V38ZM49 39H50V40H49V39ZM50 40H51V41H50V40ZM50 41H51V42H50V41ZM51 42H52V43H51V42ZM51 43H52V44H51V43ZM52 41H53V42H52V41ZM52 40H53V41H52V40ZM53 39H54V40H53V39ZM53 38H54V39H53V38ZM54 37H55V38H54V37ZM54 36H55V37H54V36Z" fill="#222222"/>
<path d="M40 42H41V43H40V42ZM40 41H41V42H40V41ZM40 40H41V41H40V40ZM40 39H41V40H40V39ZM41 43H42V44H41V43ZM42 43H43V44H42V43ZM43 43H44V44H43V43ZM41 38H42V39H41V38ZM42 38H43V39H42V38ZM43 38H44V39H43V38ZM44 38H45V39H44V38ZM44 39H45V40H44V39ZM44 40H45V41H44V40ZM44 41H45V42H44V41ZM44 42H45V43H44V42ZM44 43H45V44H44V43ZM44 44H45V45H44V44ZM43 45H44V46H43V45ZM42 45H43V46H42V45ZM41 45H42V46H41V45Z" fill="#222222"/>
<path d="M34 43H35V44H34V43ZM34 42H35V43H34V42ZM34 41H35V42H34V41ZM34 40H35V41H34V40ZM34 39H35V40H34V39ZM34 38H35V39H34V38ZM35 38H36V39H35V38ZM36 38H37V39H36V38ZM37 38H38V39H37V38ZM38 39H39V40H38V39ZM38 40H39V41H38V40ZM38 41H39V42H38V41ZM38 42H39V43H38V42ZM38 43H39V44H38V43Z" fill="#222222"/>
<path d="M29 43H30V44H29V43ZM30 43H31V44H30V43ZM31 43H32V44H31V43ZM28 42H29V43H28V42ZM28 41H29V42H28V41ZM28 40H29V41H28V40ZM28 39H29V40H28V39ZM29 38H30V39H29V38ZM30 38H31V39H30V38ZM31 38H32V39H31V38ZM32 39H33V40H32V39ZM32 40H33V41H32V40ZM31 40H32V41H31V40ZM30 40H31V41H30V40ZM29 40H30V41H29V40ZM32 42H33V43H32V42Z" fill="#222222"/>
<path d="M26 43H27V44H26V43ZM26 42H27V43H26V42ZM26 41H27V42H26V41ZM26 40H27V41H26V40ZM26 39H27V40H26V39ZM26 38H27V39H26V38ZM26 36H27V37H26V36Z" fill="#222222"/>
<path d="M22 42H23V43H22V42ZM23 43H24V44H23V43ZM22 41H23V42H22V41ZM22 40H23V41H22V40ZM22 39H23V40H22V39ZM22 38H23V39H22V38ZM22 37H23V38H22V37ZM22 36H23V37H22V36ZM21 38H22V39H21V38ZM23 38H24V39H23V38ZM24 38H25V39H24V38ZM24 43H25V44H24V43Z" fill="#222222"/>
<path d="M13 42H14V43H13V42ZM13 41H14V42H13V41ZM13 40H14V41H13V40ZM13 39H14V40H13V39ZM14 38H15V39H14V38ZM15 38H16V39H15V38ZM16 38H17V39H16V38ZM17 39H18V40H17V39ZM17 40H18V41H17V40ZM17 42H18V43H17V42ZM17 41H18V42H17V41ZM14 43H15V44H14V43ZM15 43H16V44H15V43ZM16 43H17V44H16V43Z" fill="#222222"/>
<path d="M7.97601 37.976H11.024V38.976H12.024V44.024H7.97601V43.024H6.97601V40.976H7.97601V39.976H10.976V39.024H7.97601V37.976ZM8.02401 42.976H10.976V41.024H8.02401V42.976ZM9.00001 36H10V37H9.00001V36ZM10 35H11V36H10V35Z" fill="#222222"/>
<path d="M33 34H34V33H35V34H34V35H33V34Z" fill="#222222"/>
<path d="M168 34H169V33H170V34H169V35H168V34Z" fill="#222222"/>
<path d="M86 34H85V33H84V34H85V35H86V34Z" fill="#222222"/>
<path d="M121 34H120V33H119V34H120V35H121V34Z" fill="#222222"/>
<path d="M0 43H1V44H0V43ZM1 43H2V44H1V43ZM2 43H3V44H2V43ZM3 43H4V44H3V43ZM4 43H5V44H4V43ZM5 42H6V43H5V42ZM5 41H6V42H5V41ZM5 40H6V41H5V40ZM4 39H5V40H4V39ZM5 38H6V39H5V38ZM5 37H6V38H5V37ZM4 36H5V37H4V36ZM3 36H4V37H3V36ZM2 36H3V37H2V36ZM1 36H2V37H1V36ZM0 36H1V37H0V36ZM0 37H1V38H0V37ZM0 38H1V39H0V38ZM0 39H1V40H0V39ZM0 40H1V41H0V40ZM0 41H1V42H0V41ZM0 42H1V43H0V42ZM1 39H2V40H1V39ZM2 39H3V40H2V39ZM3 39H4V40H3V39Z" fill="#222222"/>
<path d="M116 37H117V38H116V37Z" fill="#222222"/>
<path d="M116 38H117V39H116V38Z" fill="#222222"/>
<path d="M123 37H124V38H123V37Z" fill="#222222"/>
<path d="M121 35H122V36H121V35Z" fill="#222222"/>
<path d="M123 38H124V39H123V38Z" fill="#222222"/>
<path d="M60 45H61V46H60V45Z" fill="#222222"/>
<path d="M30 35H31V36H30V35ZM29 36H30V37H29V36ZM31 36H32V37H31V36Z" fill="#222222"/>
<path d="M165 35H166V36H165V35ZM164 36H165V37H164V36ZM166 36H167V37H166V36Z" fill="#222222"/>
<path d="M87 35H88V36H87V35ZM86 36H87V37H86V36ZM88 36H89V37H88V36Z" fill="#222222"/>
<path d="M60 35H61V36H60V35ZM59 36H60V37H59V36ZM61 36H62V37H61V36Z" fill="#222222"/>
</svg>
